999
dxfrw 0.5.10
0
SECTION
2
HEADER
9
$ACADVER
1
AC1021
9
$HANDSEED
5
20000
9
$DWGCODEPAGE
3
ANSI_1252
9
$INSBASE
10
0
20
0
30
0
9
$EXTMIN
10
10
20
9.92286694057
30
0
9
$EXTMAX
10
250
20
155
30
0
9
$LIMMIN
10
0
20
0
9
$LIMMAX
10
420
20
297
9
$ORTHOMODE
70
0
9
$LTSCALE
40
1
9
$TEXTSTYLE
7
STANDARD
9
$CLAYER
8
0
9
$DIMASZ
40
2.5
9
$DIMLFAC
40
1
9
$DIMSCALE
40
1
9
$DIMEXO
40
0.625
9
$DIMEXE
40
1.25
9
$DIMTXT
40
2.5
9
$DIMTSZ
40
0
9
$DIMAUNIT
70
0
9
$DIMADEC
70
0
9
$DIMLUNIT
70
2
9
$DIMSTYLE
2
STANDARD
9
$DIMGAP
40
0.625
9
$DIMTIH
70
0
9
$LUNITS
70
2
9
$LUPREC
70
4
9
$AUNITS
70
0
9
$AUPREC
70
2
9
$SPLINESEGS
70
8
9
$GRIDMODE
70
1
9
$SNAPSTYLE
70
0
9
$PINSBASE
10
0
20
0
30
0
9
$PLIMMIN
10
0
20
0
9
$PLIMMAX
10
210
20
297
9
$INSUNITS
70
4
9
$PSVPSCALE
40
1
0
ENDSEC
0
SECTION
2
CLASSES
0
ENDSEC
0
SECTION
2
TABLES
0
TABLE
2
VPORT
5
8
330
0
100
AcDbSymbolTable
70
1
0
VPORT
5
31
330
2
100
AcDbSymbolTableRecord
100
AcDbViewportTableRecord
2
*ACTIVE
70
0
10
0
20
0
11
1
21
1
12
132.992
22
83.2
13
0
23
0
14
10
24
10
15
10
25
10
16
0
26
0
36
1
17
0
27
0
37
0
40
62.848
41
2.07128309572
42
50
43
0
44
0
50
0
51
0
71
0
72
100
73
1
74
3
75
0
76
1
77
0
78
0
281
0
65
1
110
0
120
0
130
0
111
1
121
0
131
0
112
0
122
1
132
0
79
0
146
0
348
10020
60
7
61
5
292
1
282
1
141
0
142
0
63
250
421
3358443
0
ENDTAB
0
TABLE
2
LTYPE
5
5
330
0
100
AcDbSymbolTable
70
4
0
LTYPE
5
14
330
5
100
AcDbSymbolTableRecord
100
AcDbLinetypeTableRecord
2
ByBlock
70
0
3

72
65
73
0
40
0
0
LTYPE
5
15
330
5
100
AcDbSymbolTableRecord
100
AcDbLinetypeTableRecord
2
ByLayer
70
0
3

72
65
73
0
40
0
0
LTYPE
5
16
330
5
100
AcDbSymbolTableRecord
100
AcDbLinetypeTableRecord
2
Continuous
70
0
3
Solid line
72
65
73
0
40
0
0
LTYPE
5
32
330
5
100
AcDbSymbolTableRecord
100
AcDbLinetypeTableRecord
2
DOT
70
0
3
Dot . . . . . . . . . . . . . . . . . . . . . .
72
65
73
2
40
6.35
49
0
74
0
49
-6.35
74
0
0
LTYPE
5
33
330
5
100
AcDbSymbolTableRecord
100
AcDbLinetypeTableRecord
2
DOT2
70
0
3
Dot (.5x) .....................................
72
65
73
2
40
3.175
49
0
74
0
49
-3.175
74
0
0
LTYPE
5
34
330
5
100
AcDbSymbolTableRecord
100
AcDbLinetypeTableRecord
2
DOTX2
70
0
3
Dot (2x) .  .  .  .  .  .  .  .  .  .  .  .  .
72
65
73
2
40
12.7
49
0
74
0
49
-12.7
74
0
0
LTYPE
5
35
330
5
100
AcDbSymbolTableRecord
100
AcDbLinetypeTableRecord
2
DASHED
70
0
3
Dot . . . . . . . . . . . . . . . . . . . . . .
72
65
73
2
40
19.05
49
12.7
74
0
49
-6.35
74
0
0
LTYPE
5
36
330
5
100
AcDbSymbolTableRecord
100
AcDbLinetypeTableRecord
2
DASHED2
70
0
3
Dashed (.5x) _ _ _ _ _ _ _ _ _ _ _ _ _ _ _ _ _
72
65
73
2
40
9.525
49
6.35
74
0
49
-3.175
74
0
0
LTYPE
5
37
330
5
100
AcDbSymbolTableRecord
100
AcDbLinetypeTableRecord
2
DASHEDX2
70
0
3
Dashed (2x) ____  ____  ____  ____  ____  ___
72
65
73
2
40
38.1
49
25.4
74
0
49
-12.7
74
0
0
LTYPE
5
38
330
5
100
AcDbSymbolTableRecord
100
AcDbLinetypeTableRecord
2
DASHDOT
70
0
3
Dash dot __ . __ . __ . __ . __ . __ . __ . __
72
65
73
4
40
25.4
49
12.7
74
0
49
-6.35
74
0
49
0
74
0
49
-6.35
74
0
0
LTYPE
5
39
330
5
100
AcDbSymbolTableRecord
100
AcDbLinetypeTableRecord
2
DASHDOT2
70
0
3
Dash dot (.5x) _._._._._._._._._._._._._._._.
72
65
73
4
40
12.7
49
6.35
74
0
49
-3.175
74
0
49
0
74
0
49
-3.175
74
0
0
LTYPE
5
3A
330
5
100
AcDbSymbolTableRecord
100
AcDbLinetypeTableRecord
2
DASHDOTX2
70
0
3
Dash dot (2x) ____  .  ____  .  ____  .  ___
72
65
73
4
40
50.8
49
25.4
74
0
49
-12.7
74
0
49
0
74
0
49
-12.7
74
0
0
LTYPE
5
3B
330
5
100
AcDbSymbolTableRecord
100
AcDbLinetypeTableRecord
2
DIVIDE
70
0
3
Divide ____ . . ____ . . ____ . . ____ . . ____
72
65
73
6
40
31.75
49
12.7
74
0
49
-6.35
74
0
49
0
74
0
49
-6.35
74
0
49
0
74
0
49
-6.35
74
0
0
LTYPE
5
3C
330
5
100
AcDbSymbolTableRecord
100
AcDbLinetypeTableRecord
2
DIVIDE2
70
0
3
Divide (.5x) __..__..__..__..__..__..__..__.._
72
65
73
6
40
15.875
49
6.35
74
0
49
-3.175
74
0
49
0
74
0
49
-3.175
74
0
49
0
74
0
49
-3.175
74
0
0
LTYPE
5
3D
330
5
100
AcDbSymbolTableRecord
100
AcDbLinetypeTableRecord
2
DIVIDEX2
70
0
3
Divide (2x) ________  .  .  ________  .  .  _
72
65
73
6
40
63.5
49
25.4
74
0
49
-12.7
74
0
49
0
74
0
49
-12.7
74
0
49
0
74
0
49
-12.7
74
0
0
LTYPE
5
3E
330
5
100
AcDbSymbolTableRecord
100
AcDbLinetypeTableRecord
2
BORDER
70
0
3
Border __ __ . __ __ . __ __ . __ __ . __ __ .
72
65
73
6
40
44.45
49
12.7
74
0
49
-6.35
74
0
49
12.7
74
0
49
-6.35
74
0
49
0
74
0
49
-6.35
74
0
0
LTYPE
5
3F
330
5
100
AcDbSymbolTableRecord
100
AcDbLinetypeTableRecord
2
BORDER2
70
0
3
Border (.5x) __.__.__.__.__.__.__.__.__.__.__.
72
65
73
6
40
22.225
49
6.35
74
0
49
-3.175
74
0
49
6.35
74
0
49
-3.175
74
0
49
0
74
0
49
-3.175
74
0
0
LTYPE
5
40
330
5
100
AcDbSymbolTableRecord
100
AcDbLinetypeTableRecord
2
BORDERX2
70
0
3
Border (2x) ____  ____  .  ____  ____  .  ___
72
65
73
6
40
88.9
49
25.4
74
0
49
-12.7
74
0
49
25.4
74
0
49
-12.7
74
0
49
0
74
0
49
-12.7
74
0
0
LTYPE
5
41
330
5
100
AcDbSymbolTableRecord
100
AcDbLinetypeTableRecord
2
CENTER
70
0
3
Center ____ _ ____ _ ____ _ ____ _ ____ _ ____
72
65
73
4
40
50.8
49
31.75
74
0
49
-6.35
74
0
49
6.35
74
0
49
-6.35
74
0
0
LTYPE
5
42
330
5
100
AcDbSymbolTableRecord
100
AcDbLinetypeTableRecord
2
CENTER2
70
0
3
Center (.5x) ___ _ ___ _ ___ _ ___ _ ___ _ ___
72
65
73
4
40
28.575
49
19.05
74
0
49
-3.175
74
0
49
3.175
74
0
49
-3.175
74
0
0
LTYPE
5
43
330
5
100
AcDbSymbolTableRecord
100
AcDbLinetypeTableRecord
2
CENTERX2
70
0
3
Center (2x) ________  __  ________  __  _____
72
65
73
4
40
101.6
49
63.5
74
0
49
-12.7
74
0
49
12.7
74
0
49
-12.7
74
0
0
ENDTAB
0
TABLE
2
LAYER
5
2
330
0
100
AcDbSymbolTable
70
1
0
LAYER
5
10
330
2
100
AcDbSymbolTableRecord
100
AcDbLayerTableRecord
2
0
70
0
62
7
6
CONTINUOUS
370
0
390
F
0
LAYER
5
44
330
2
100
AcDbSymbolTableRecord
100
AcDbLayerTableRecord
2
noname
70
1
62
6
6
CONTINUOUS
290
0
370
0
390
F
0
ENDTAB
0
TABLE
2
STYLE
5
3
330
0
100
AcDbSymbolTable
70
3
0
STYLE
5
45
330
2
100
AcDbSymbolTableRecord
100
AcDbTextStyleTableRecord
2
Standard
70
0
40
0
41
1
50
0
71
0
42
1
3
txt
4

0
ENDTAB
0
TABLE
2
VIEW
5
6
330
0
100
AcDbSymbolTable
70
0
0
ENDTAB
0
TABLE
2
UCS
5
7
330
0
100
AcDbSymbolTable
70
0
0
ENDTAB
0
TABLE
2
APPID
5
9
330
0
100
AcDbSymbolTable
70
1
0
APPID
5
12
330
9
100
AcDbSymbolTableRecord
100
AcDbRegAppTableRecord
2
ACAD
70
0
0
ENDTAB
0
TABLE
2
DIMSTYLE
5
A
330
0
100
AcDbSymbolTable
70
1
100
AcDbDimStyleTable
71
1
0
DIMSTYLE
105
46
330
A
100
AcDbSymbolTableRecord
100
AcDbDimStyleTableRecord
2
Standard
70
0
40
1
41
2.5
42
0.625
43
0.38
44
1.25
45
0
46
0
47
0
48
0
140
2.5
141
0.09
142
0
143
25.4
144
1
145
0
146
1
147
0.625
148
0
71
0
72
0
73
0
74
1
75
0
76
0
77
0
78
0
79
0
170
0
171
2
172
0
173
0
174
0
175
0
176
0
177
0
178
0
179
0
271
4
272
4
273
2
274
2
275
0
276
0
277
2
278
46
279
0
280
0
281
0
282
0
283
1
284
0
285
0
286
0
288
0
289
3
340
Standard
341

371
-2
372
-2
0
ENDTAB
0
TABLE
2
BLOCK_RECORD
5
1
330
0
100
AcDbSymbolTable
70
2
0
BLOCK_RECORD
5
1F
330
1
100
AcDbSymbolTableRecord
100
AcDbBlockTableRecord
2
*Model_Space
70
0
280
1
281
0
0
BLOCK_RECORD
5
1E
330
1
100
AcDbSymbolTableRecord
100
AcDbBlockTableRecord
2
*Paper_Space
70
0
280
1
281
0
0
BLOCK_RECORD
5
47
330
1
100
AcDbSymbolTableRecord
100
AcDbBlockTableRecord
2
*D2
70
0
280
1
281
0
0
BLOCK_RECORD
5
4A
330
1
100
AcDbSymbolTableRecord
100
AcDbBlockTableRecord
2
*D5
70
0
280
1
281
0
0
BLOCK_RECORD
5
4D
330
1
100
AcDbSymbolTableRecord
100
AcDbBlockTableRecord
2
*D8
70
0
280
1
281
0
0
BLOCK_RECORD
5
50
330
1
100
AcDbSymbolTableRecord
100
AcDbBlockTableRecord
2
*D7
70
0
280
1
281
0
0
BLOCK_RECORD
5
53
330
1
100
AcDbSymbolTableRecord
100
AcDbBlockTableRecord
2
*D3
70
0
280
1
281
0
0
BLOCK_RECORD
5
56
330
1
100
AcDbSymbolTableRecord
100
AcDbBlockTableRecord
2
*D6
70
0
280
1
281
0
0
BLOCK_RECORD
5
59
330
1
100
AcDbSymbolTableRecord
100
AcDbBlockTableRecord
2
*D9
70
0
280
1
281
0
0
BLOCK_RECORD
5
5C
330
1
100
AcDbSymbolTableRecord
100
AcDbBlockTableRecord
2
*D1
70
0
280
1
281
0
0
BLOCK_RECORD
5
5F
330
1
100
AcDbSymbolTableRecord
100
AcDbBlockTableRecord
2
*D4
70
0
280
1
281
0
0
ENDTAB
0
ENDSEC
0
SECTION
2
BLOCKS
0
BLOCK
5
20
330
1F
100
AcDbEntity
8
0
100
AcDbBlockBegin
2
*Model_Space
70
0
10
0
20
0
30
0
3
*Model_Space
1

0
ENDBLK
5
21
330
1F
100
AcDbEntity
8
0
100
AcDbBlockEnd
0
BLOCK
5
1C
330
1B
100
AcDbEntity
8
0
100
AcDbBlockBegin
2
*Paper_Space
70
0
10
0
20
0
30
0
3
*Paper_Space
1

0
ENDBLK
5
1D
330
1F
100
AcDbEntity
8
0
100
AcDbBlockEnd
0
BLOCK
5
48
330
47
100
AcDbEntity
8
0
100
AcDbBlockBegin
2
*D2
70
1
10
0
20
0
3
*D2
1

0
LINE
5
62
100
AcDbEntity
8
noname
6
CONTINUOUS
62
7
370
0
100
AcDbLine
10
0
20
-30
11
60
21
-30
0
SOLID
5
63
100
AcDbEntity
8
noname
6
CONTINUOUS
62
7
370
0
100
AcDbTrace
10
0
20
-30
30
0
11
2.5
21
-29.5837153422
31
0
12
2.5
22
-30.4162846578
32
0
13
2.5
23
-30.4162846578
33
0
0
SOLID
5
64
100
AcDbEntity
8
noname
6
CONTINUOUS
62
7
370
0
100
AcDbTrace
10
60
20
-30
30
0
11
57.5
21
-30.4162846578
31
0
12
57.5
22
-29.5837153422
32
0
13
57.5
23
-29.5837153422
33
0
0
MTEXT
5
65
100
AcDbEntity
8
noname
6
CONTINUOUS
62
7
370
0
100
AcDbMText
10
30
20
-28.125
30
0
40
2.5
41
3.05555555556
71
5
72
1
1
60
7
standard
210
0
220
0
230
1
50
0
73
2
44
1
0
LINE
5
66
100
AcDbEntity
8
noname
6
CONTINUOUS
62
7
370
0
100
AcDbLine
10
-1.1481063742e-16
20
39.375
11
-2.2962127484e-16
21
-31.25
0
LINE
5
67
100
AcDbEntity
8
noname
6
CONTINUOUS
62
7
370
0
100
AcDbLine
10
60
20
39.375
11
60
21
-31.25
0
ENDBLK
5
49
330
47
100
AcDbEntity
8
0
100
AcDbBlockEnd
0
BLOCK
5
4B
330
4A
100
AcDbEntity
8
0
100
AcDbBlockBegin
2
*D5
70
1
10
0
20
0
3
*D5
1

0
LINE
5
68
100
AcDbEntity
8
noname
6
CONTINUOUS
62
7
370
0
100
AcDbLine
10
129.359741244
20
9.3380957746
11
128.275128524
21
15.4892401718
0
LINE
5
69
100
AcDbEntity
8
noname
6
CONTINUOUS
62
7
370
0
100
AcDbLine
10
94.891469889
20
3.26040955626
11
93.8068571695
21
9.41155395341
0
LINE
5
6A
100
AcDbEntity
8
noname
6
CONTINUOUS
62
7
370
0
100
AcDbLine
10
128.492188747
20
14.2582304805
11
94.0239173916
21
8.18054426215
0
SOLID
5
6B
100
AcDbEntity
8
noname
6
CONTINUOUS
62
7
370
0
100
AcDbTrace
10
128.492188747
20
14.2582304805
30
0
11
126.102456436
21
13.4141496779
31
0
12
125.957882292
22
14.2340703947
32
0
13
125.957882292
23
14.2340703947
33
0
0
SOLID
5
6C
100
AcDbEntity
8
noname
6
CONTINUOUS
62
7
370
0
100
AcDbTrace
10
94.0239173916
20
8.18054426215
30
0
11
96.4136497019
21
9.02462506475
31
0
12
96.5582238463
22
8.20470434788
32
0
13
96.5582238463
23
8.20470434788
33
0
0
MTEXT
5
6D
100
AcDbEntity
8
noname
6
CONTINUOUS
62
7
370
0
100
AcDbMText
10
110.932462736
20
13.0659019082
30
0
40
2.5
41
3.05555555556
71
5
72
1
1
35
7
standard
210
0
220
0
230
1
50
10.0000000001
73
2
44
1
0
ENDBLK
5
4C
330
4A
100
AcDbEntity
8
0
100
AcDbBlockEnd
0
BLOCK
5
4E
330
4D
100
AcDbEntity
8
0
100
AcDbBlockBegin
2
*D8
70
1
10
0
20
0
3
*D8
1

0
LINE
5
6E
100
AcDbEntity
8
noname
6
CONTINUOUS
62
7
370
0
100
AcDbLine
10
80
20
-35
11
80
21
-70
0
SOLID
5
6F
100
AcDbEntity
8
noname
6
CONTINUOUS
62
7
370
0
100
AcDbTrace
10
80
20
-35
30
0
11
80.4162846578
21
-37.5
31
0
12
79.5837153422
22
-37.5
32
0
13
79.5837153422
23
-37.5
33
0
0
SOLID
5
70
100
AcDbEntity
8
noname
6
CONTINUOUS
62
7
370
0
100
AcDbTrace
10
80
20
-70
30
0
11
79.5837153422
21
-67.5
31
0
12
80.4162846578
22
-67.5
32
0
13
80.4162846578
23
-67.5
33
0
0
MTEXT
5
71
100
AcDbEntity
8
noname
6
CONTINUOUS
62
7
370
0
100
AcDbMText
10
78.125
20
-52.5
30
0
40
2.5
41
3.05555555556
71
5
72
1
1
35
7
standard
210
0
220
0
230
1
50
90
73
2
44
1
0
LINE
5
72
100
AcDbEntity
8
noname
6
CONTINUOUS
62
7
370
0
100
AcDbLine
10
65.625
20
-35
11
81.25
21
-35
0
LINE
5
73
100
AcDbEntity
8
noname
6
CONTINUOUS
62
7
370
0
100
AcDbLine
10
65.625
20
-70
11
81.25
21
-70
0
ENDBLK
5
4F
330
4D
100
AcDbEntity
8
0
100
AcDbBlockEnd
0
BLOCK
5
51
330
50
100
AcDbEntity
8
0
100
AcDbBlockBegin
2
*D7
70
1
10
0
20
0
3
*D7
1

0
LINE
5
74
100
AcDbEntity
8
noname
6
CONTINUOUS
62
7
370
0
100
AcDbLine
10
95.6155048456
20
2.75343482167
11
107.24585
21
4.80417846725
0
LINE
5
75
100
AcDbEntity
8
noname
6
CONTINUOUS
62
7
370
0
100
AcDbLine
10
96.4837457339
20
-2.17060394339
11
108.114090888
21
-0.119860297813
0
LINE
5
76
100
AcDbEntity
8
noname
6
CONTINUOUS
62
7
370
0
100
AcDbLine
10
105.14659942
20
9.51115701024
11
107.751322085
21
-5.26095928496
0
SOLID
5
77
100
AcDbEntity
8
noname
6
CONTINUOUS
62
7
370
0
100
AcDbTrace
10
106.014840309
20
4.58711824517
30
0
11
105.170759506
21
6.9768505555
31
0
12
105.990680223
22
7.12142469992
32
0
13
105.990680223
23
7.12142469992
33
0
0
SOLID
5
78
100
AcDbEntity
8
noname
6
CONTINUOUS
62
7
370
0
100
AcDbTrace
10
106.883081197
20
-0.336920519888
30
0
11
107.727162
21
-2.72665283021
31
0
12
106.907241283
22
-2.87122697463
32
0
13
106.907241283
23
-2.87122697463
33
0
0
MTEXT
5
79
100
AcDbEntity
8
noname
6
CONTINUOUS
62
7
370
0
100
AcDbMText
10
108.29547529
20
2.45068919588
30
0
40
2.5
41
1.11111111111
71
5
72
1
1
5
7
standard
210
0
220
0
230
1
50
280
73
2
44
1
0
ENDBLK
5
52
330
50
100
AcDbEntity
8
0
100
AcDbBlockEnd
0
BLOCK
5
54
330
53
100
AcDbEntity
8
0
100
AcDbBlockBegin
2
*D3
70
1
10
0
20
0
3
*D3
1

0
LINE
5
7A
100
AcDbEntity
8
noname
6
CONTINUOUS
62
7
370
0
100
AcDbLine
10
95
20
60
11
130
21
60
0
SOLID
5
7B
100
AcDbEntity
8
noname
6
CONTINUOUS
62
7
370
0
100
AcDbTrace
10
95
20
60
30
0
11
97.5
21
60.4162846578
31
0
12
97.5
22
59.5837153422
32
0
13
97.5
23
59.5837153422
33
0
0
SOLID
5
7C
100
AcDbEntity
8
noname
6
CONTINUOUS
62
7
370
0
100
AcDbTrace
10
130
20
60
30
0
11
127.5
21
59.5837153422
31
0
12
127.5
22
60.4162846578
32
0
13
127.5
23
60.4162846578
33
0
0
MTEXT
5
7D
100
AcDbEntity
8
noname
6
CONTINUOUS
62
7
370
0
100
AcDbMText
10
112.5
20
61.875
30
0
40
2.5
41
3.05555555556
71
5
72
1
1
35
7
standard
210
0
220
0
230
1
50
0
73
2
44
1
0
LINE
5
7E
100
AcDbEntity
8
noname
6
CONTINUOUS
62
7
370
0
100
AcDbLine
10
95
20
55.625
11
95
21
61.25
0
LINE
5
7F
100
AcDbEntity
8
noname
6
CONTINUOUS
62
7
370
0
100
AcDbLine
10
130
20
55.625
11
130
21
61.25
0
ENDBLK
5
55
330
53
100
AcDbEntity
8
0
100
AcDbBlockEnd
0
BLOCK
5
57
330
56
100
AcDbEntity
8
0
100
AcDbBlockBegin
2
*D6
70
1
10
0
20
0
3
*D6
1

0
LINE
5
80
100
AcDbEntity
8
noname
6
CONTINUOUS
62
7
370
0
100
AcDbLine
10
95.9767709993
20
-2.89463890006
11
97.5104105989
21
-11.5923412787
0
LINE
5
81
100
AcDbEntity
8
noname
6
CONTINUOUS
62
7
370
0
100
AcDbLine
10
80.108530111
20
-5.69263790506
11
81.6421697106
21
-14.3903402837
0
LINE
5
82
100
AcDbEntity
8
noname
6
CONTINUOUS
62
7
370
0
100
AcDbLine
10
97.2933503768
20
-10.3613315874
11
81.4251094885
21
-13.1593305924
0
SOLID
5
83
100
AcDbEntity
8
noname
6
CONTINUOUS
62
7
370
0
100
AcDbTrace
10
97.2933503768
20
-10.3613315874
30
0
11
94.9036180665
21
-11.20541239
31
0
12
94.759043922
22
-10.3854916731
32
0
13
94.759043922
23
-10.3854916731
33
0
0
SOLID
5
84
100
AcDbEntity
8
noname
6
CONTINUOUS
62
7
370
0
100
AcDbTrace
10
81.4251094885
20
-13.1593305924
30
0
11
83.8148417988
21
-12.3152497898
31
0
12
83.9594159432
22
-13.1351705067
32
0
13
83.9594159432
23
-13.1351705067
33
0
0
MTEXT
5
85
100
AcDbEntity
8
noname
6
CONTINUOUS
62
7
370
0
100
AcDbMText
10
89.0336395995
20
-9.91381655299
30
0
40
2.5
41
8.05555555556
71
5
72
1
1
16.113
7
standard
210
0
220
0
230
1
50
10
73
2
44
1
0
ENDBLK
5
58
330
56
100
AcDbEntity
8
0
100
AcDbBlockEnd
0
BLOCK
5
5A
330
59
100
AcDbEntity
8
0
100
AcDbBlockBegin
2
*D9
70
1
10
0
20
0
3
*D9
1

0
LINE
5
86
100
AcDbEntity
8
noname
6
CONTINUOUS
62
7
370
0
100
AcDbLine
10
80
20
-70
11
80
21
-85
0
SOLID
5
87
100
AcDbEntity
8
noname
6
CONTINUOUS
62
7
370
0
100
AcDbTrace
10
80
20
-70
30
0
11
80.4162846578
21
-72.5
31
0
12
79.5837153422
22
-72.5
32
0
13
79.5837153422
23
-72.5
33
0
0
SOLID
5
88
100
AcDbEntity
8
noname
6
CONTINUOUS
62
7
370
0
100
AcDbTrace
10
80
20
-85
30
0
11
79.5837153422
21
-82.5
31
0
12
80.4162846578
22
-82.5
32
0
13
80.4162846578
23
-82.5
33
0
0
MTEXT
5
89
100
AcDbEntity
8
noname
6
CONTINUOUS
62
7
370
0
100
AcDbMText
10
78.125
20
-77.5
30
0
40
2.5
41
2.5
71
5
72
1
1
15
7
standard
210
0
220
0
230
1
50
90
73
2
44
1
0
LINE
5
8A
100
AcDbEntity
8
noname
6
CONTINUOUS
62
7
370
0
100
AcDbLine
10
65.625
20
-70
11
81.25
21
-70
0
LINE
5
8B
100
AcDbEntity
8
noname
6
CONTINUOUS
62
7
370
0
100
AcDbLine
10
60.625
20
-85
11
81.25
21
-85
0
ENDBLK
5
5B
330
59
100
AcDbEntity
8
0
100
AcDbBlockEnd
0
BLOCK
5
5D
330
5C
100
AcDbEntity
8
0
100
AcDbBlockBegin
2
*D1
70
1
10
0
20
0
3
*D1
1

0
LINE
5
8C
100
AcDbEntity
8
noname
6
CONTINUOUS
62
7
370
0
100
AcDbLine
10
80
20
70
11
145
21
70
0
SOLID
5
8D
100
AcDbEntity
8
noname
6
CONTINUOUS
62
7
370
0
100
AcDbTrace
10
80
20
70
30
0
11
82.5
21
70.4162846578
31
0
12
82.5
22
69.5837153422
32
0
13
82.5
23
69.5837153422
33
0
0
SOLID
5
8E
100
AcDbEntity
8
noname
6
CONTINUOUS
62
7
370
0
100
AcDbTrace
10
145
20
70
30
0
11
142.5
21
69.5837153422
31
0
12
142.5
22
70.4162846578
32
0
13
142.5
23
70.4162846578
33
0
0
MTEXT
5
8F
100
AcDbEntity
8
noname
6
CONTINUOUS
62
7
370
0
100
AcDbMText
10
112.5
20
71.875
30
0
40
2.5
41
3.05555555556
71
5
72
1
1
65
7
standard
210
0
220
0
230
1
50
0
73
2
44
1
0
LINE
5
90
100
AcDbEntity
8
noname
6
CONTINUOUS
62
7
370
0
100
AcDbLine
10
80
20
55.625
11
80
21
71.25
0
LINE
5
91
100
AcDbEntity
8
noname
6
CONTINUOUS
62
7
370
0
100
AcDbLine
10
145
20
55.625
11
145
21
71.25
0
ENDBLK
5
5E
330
5C
100
AcDbEntity
8
0
100
AcDbBlockEnd
0
BLOCK
5
60
330
5F
100
AcDbEntity
8
0
100
AcDbBlockBegin
2
*D4
70
1
10
0
20
0
3
*D4
1

0
LINE
5
92
100
AcDbEntity
8
noname
6
CONTINUOUS
62
7
370
0
100
AcDbLine
10
145.108530111
20
5.76861584099
11
147.21425483
21
-6.17354247341
0
LINE
5
93
100
AcDbEntity
8
noname
6
CONTINUOUS
62
7
370
0
100
AcDbLine
10
130.445042355
20
3.18304731828
11
132.550767074
21
-8.75911099612
0
LINE
5
94
100
AcDbEntity
8
noname
6
CONTINUOUS
62
7
370
0
100
AcDbLine
10
146.997194608
20
-4.94253278214
11
132.333706852
21
-7.52810130485
0
SOLID
5
95
100
AcDbEntity
8
noname
6
CONTINUOUS
62
7
370
0
100
AcDbTrace
10
146.997194608
20
-4.94253278214
30
0
11
144.607462297
21
-5.78661358475
31
0
12
144.462888153
22
-4.96669286788
32
0
13
144.462888153
23
-4.96669286788
33
0
0
SOLID
5
96
100
AcDbEntity
8
noname
6
CONTINUOUS
62
7
370
0
100
AcDbTrace
10
132.333706852
20
-7.52810130485
30
0
11
134.723439162
21
-6.68402050224
31
0
12
134.868013306
22
-7.50394121911
32
0
13
134.868013306
23
-7.50394121911
33
0
0
MTEXT
5
97
100
AcDbEntity
8
noname
6
CONTINUOUS
62
7
370
0
100
AcDbMText
10
139.339860396
20
-4.38880250657
30
0
40
2.5
41
11.3888888889
71
5
72
1
1
14.8897
7
standard
210
0
220
0
230
1
50
10.0000000001
73
2
44
1
0
ENDBLK
5
61
330
5F
100
AcDbEntity
8
0
100
AcDbBlockEnd
0
ENDSEC
0
SECTION
2
ENTITIES
0
DIMENSION
5
98
100
AcDbEntity
8
noname
6
ByLayer
62
256
370
-1
100
AcDbDimension
2
*D1
10
145
20
70
30
0
11
112.5
21
71.875
31
0
70
32
71
5
3
Standard
53
0
210
0
220
0
230
1
100
AcDbAlignedDimension
13
80
23
55
33
0
14
145
24
55
34
0
100
AcDbRotatedDimension
0
DIMENSION
5
99
100
AcDbEntity
8
noname
6
ByLayer
62
256
370
-1
100
AcDbDimension
2
*D2
10
60
20
-30
30
0
11
30
21
-28.125
31
0
70
32
71
5
3
Standard
53
0
210
0
220
0
230
1
100
AcDbAlignedDimension
13
0
23
40
33
0
14
60
24
40
34
0
100
AcDbRotatedDimension
0
DIMENSION
5
9A
100
AcDbEntity
8
noname
6
ByLayer
62
256
370
-1
100
AcDbDimension
2
*D3
10
130
20
60
30
0
11
112.5
21
61.875
31
0
70
32
71
5
3
Standard
53
0
210
0
220
0
230
1
100
AcDbAlignedDimension
13
95
23
55
33
0
14
130
24
55
34
0
100
AcDbRotatedDimension
0
DIMENSION
5
9B
100
AcDbEntity
8
noname
6
ByLayer
62
256
370
-1
100
AcDbDimension
2
*D4
10
132.333706852
20
-7.52810130485
30
0
11
139.339860396
21
-4.38880250657
31
0
70
33
71
5
3
Standard
53
0
210
0
220
0
230
1
100
AcDbAlignedDimension
13
145
23
6.38412068662
33
0
14
130.336512244
24
3.79855216391
34
0
0
DIMENSION
5
9C
100
AcDbEntity
8
noname
6
ByLayer
62
256
370
-1
100
AcDbDimension
2
*D5
10
94.0239173916
20
8.18054426215
30
0
11
110.932462736
21
13.0659019082
31
0
70
33
71
5
3
Standard
53
0
210
0
220
0
230
1
100
AcDbAlignedDimension
13
129.468271355
23
8.72259092897
33
0
14
95
24
2.64490471063
34
0
0
DIMENSION
5
9D
100
AcDbEntity
8
noname
6
ByLayer
62
256
370
-1
100
AcDbDimension
2
*D6
10
81.4251094885
20
-13.1593305924
30
0
11
89.0336395995
21
-9.91381655299
31
0
70
33
71
5
3
Standard
53
0
210
0
220
0
230
1
100
AcDbAlignedDimension
13
95.8682408883
23
-2.27913405443
33
0
14
80
24
-5.07713305943
34
0
0
DIMENSION
5
9E
100
AcDbEntity
8
noname
6
ByLayer
62
256
370
-1
100
AcDbDimension
2
*D7
10
106.883081197
20
-0.336920519888
30
0
11
108.29547529
21
2.45068919588
31
0
70
33
71
5
3
Standard
53
0
210
0
220
0
230
1
100
AcDbAlignedDimension
13
95
23
2.64490471063
33
0
14
95.8682408883
24
-2.27913405443
34
0
0
DIMENSION
5
9F
100
AcDbEntity
8
noname
6
ByLayer
62
256
370
-1
100
AcDbDimension
2
*D8
10
80
20
-70
30
0
11
78.125
21
-52.5
31
0
70
32
71
5
3
Standard
53
0
210
0
220
0
230
1
100
AcDbAlignedDimension
13
65
23
-35
33
0
14
65
24
-70
34
0
50
90
100
AcDbRotatedDimension
0
DIMENSION
5
A0
100
AcDbEntity
8
noname
6
ByLayer
62
256
370
-1
100
AcDbDimension
2
*D9
10
80
20
-85
30
0
11
78.125
21
-77.5
31
0
70
32
71
5
3
Standard
53
0
210
0
220
0
230
1
100
AcDbAlignedDimension
13
65
23
-70
33
0
14
60
24
-85
34
0
50
90
100
AcDbRotatedDimension
0
LINE
5
A1
100
AcDbEntity
8
noname
6
ByLayer
62
256
370
-1
100
AcDbLine
10
0
20
-85
11
60
21
-85
0
LINE
5
A2
100
AcDbEntity
8
0
6
ByLayer
62
256
370
-1
100
AcDbLine
10
25
20
10
11
25
21
15
0
LINE
5
A3
100
AcDbEntity
8
0
6
ByLayer
62
256
370
-1
100
AcDbLine
10
10
20
25
11
15
21
25
0
LINE
5
A4
100
AcDbEntity
8
0
6
ByLayer
62
256
370
-1
100
AcDbLine
10
10
20
25
11
10
21
10
0
LINE
5
A5
100
AcDbEntity
8
0
6
ByLayer
62
256
370
-1
100
AcDbLine
10
10
20
10
11
25
21
10
0
LINE
5
A6
100
AcDbEntity
8
0
6
ByLayer
62
256
370
-1
100
AcDbLine
10
90
20
25
11
95
21
25
0
LINE
5
A7
100
AcDbEntity
8
0
6
ByLayer
62
256
370
-1
100
AcDbLine
10
110
20
17.6449047106
11
110.868240888
21
12.7208659456
0
LINE
5
A8
100
AcDbEntity
8
0
6
ByLayer
62
256
370
-1
100
AcDbLine
10
144.468271355
20
23.722590929
11
145.336512244
21
18.7985521639
0
LINE
5
A9
100
AcDbEntity
8
0
6
ByLayer
62
256
370
-1
100
AcDbLine
10
95
20
9.92286694057
11
110.868240888
21
12.7208659456
0
LINE
5
AA
100
AcDbEntity
8
0
6
ByLayer
62
256
370
-1
100
AcDbLine
10
95
20
25
11
95
21
9.92286694057
0
LINE
5
AB
100
AcDbEntity
8
0
6
ByLayer
62
256
370
-1
100
AcDbLine
10
110
20
17.6449047106
11
144.468271355
21
23.722590929
0
LINE
5
AC
100
AcDbEntity
8
0
6
ByLayer
62
256
370
-1
100
AcDbLine
10
145.336512244
20
18.7985521639
11
160
21
21.3841206866
0
LINE
5
AD
100
AcDbEntity
8
0
6
ByLayer
62
256
370
-1
100
AcDbLine
10
160
20
21.3841206866
11
160
21
27.3428886496
0
LINE
5
AE
100
AcDbEntity
8
0
6
ByLayer
62
256
370
-1
100
AcDbLine
10
160
20
27.3428886496
11
165
21
27.3428886496
0
LINE
5
AF
100
AcDbEntity
8
0
6
ByLayer
62
256
370
-1
100
AcDbLine
10
175
20
27
11
180
21
27
0
LINE
5
B0
100
AcDbEntity
8
0
6
ByLayer
62
256
370
-1
100
AcDbLine
10
175
20
27
11
175
21
21.3841206866
0
LINE
5
B1
100
AcDbEntity
8
0
6
ByLayer
62
256
370
-1
100
AcDbLine
10
84
20
10
11
84
21
25
0
LINE
5
B2
100
AcDbEntity
8
0
6
ByLayer
62
256
370
-1
100
AcDbLine
10
249
20
27
11
249
21
21.3841206866
0
LINE
5
B3
100
AcDbEntity
8
0
6
ByLayer
62
256
370
-1
100
AcDbLine
10
175
20
21.3841206866
11
249
21
21.3841206866
0
LINE
5
B4
100
AcDbEntity
8
0
6
ByLayer
62
256
370
-1
100
AcDbLine
10
79
20
25
11
84
21
25
0
LINE
5
B5
100
AcDbEntity
8
0
6
ByLayer
62
256
370
-1
100
AcDbLine
10
244
20
27
11
249
21
27
0
LINE
5
B6
100
AcDbEntity
8
0
6
ByLayer
62
256
370
-1
100
AcDbLine
10
70
20
10
11
70
21
15
0
LINE
5
B7
100
AcDbEntity
8
0
6
ByLayer
62
256
370
-1
100
AcDbLine
10
25
20
15
11
70
21
15
0
LINE
5
B8
100
AcDbEntity
8
0
6
ByLayer
62
256
370
-1
100
AcDbLine
10
70
20
10
11
84
21
10
0
CIRCLE
5
B9
100
AcDbEntity
8
0
6
ByLayer
62
256
370
-1
100
AcDbCircle
10
59
20
47
40
1.25
0
CIRCLE
5
BA
100
AcDbEntity
8
0
6
ByLayer
62
256
370
-1
100
AcDbCircle
10
30
20
47
40
1.25
0
LINE
5
BB
100
AcDbEntity
8
0
6
ByLayer
62
256
370
-1
100
AcDbLine
10
95
20
61
11
145
21
61
0
LINE
5
BC
100
AcDbEntity
8
0
6
ByLayer
62
256
370
-1
100
AcDbLine
10
160
20
66
11
145
21
66
0
LINE
5
BD
100
AcDbEntity
8
0
6
ByLayer
62
256
370
-1
100
AcDbLine
10
190
20
66
11
175
21
66
0
LINE
5
BE
100
AcDbEntity
8
0
6
ByLayer
62
256
370
-1
100
AcDbLine
10
190
20
61
11
234
21
61
0
LINE
5
BF
100
AcDbEntity
8
0
6
ByLayer
62
256
370
-1
100
AcDbLine
10
234
20
66
11
249
21
66
0
LINE
5
C0
100
AcDbEntity
8
0
6
ByLayer
62
256
370
-1
100
AcDbLine
10
70
20
61
11
25
21
61
0
LINE
5
C1
100
AcDbEntity
8
0
6
ByLayer
62
256
370
-1
100
AcDbLine
10
79
20
51
11
84
21
51
0
LINE
5
C2
100
AcDbEntity
8
0
6
ByLayer
62
256
370
-1
100
AcDbLine
10
10
20
51
11
15
21
51
0
LINE
5
C3
100
AcDbEntity
8
0
6
ByLayer
62
256
370
-1
100
AcDbLine
10
25
20
66
11
10
21
66
0
LINE
5
C4
100
AcDbEntity
8
0
6
ByLayer
62
256
370
-1
100
AcDbLine
10
84
20
66
11
70
21
66
0
LINE
5
C5
100
AcDbEntity
8
0
6
ByLayer
62
256
370
-1
100
AcDbLine
10
175
20
51
11
180
21
51
0
LINE
5
C6
100
AcDbEntity
8
0
6
ByLayer
62
256
370
-1
100
AcDbLine
10
244
20
51
11
249
21
51
0
LINE
5
C7
100
AcDbEntity
8
0
6
ByLayer
62
256
370
-1
100
AcDbLine
10
90
20
51
11
95
21
51
0
LINE
5
C8
100
AcDbEntity
8
0
6
ByLayer
62
256
370
-1
100
AcDbLine
10
160
20
51
11
165
21
51
0
LINE
5
C9
100
AcDbEntity
8
0
6
ByLayer
62
256
370
-1
100
AcDbLine
10
79
20
25
11
79
21
51
0
LINE
5
CA
100
AcDbEntity
8
0
6
ByLayer
62
256
370
-1
100
AcDbLine
10
15
20
51
11
15
21
25
0
LINE
5
CB
100
AcDbEntity
8
0
6
ByLayer
62
256
370
-1
100
AcDbLine
10
84
20
51
11
84
21
66
0
LINE
5
CC
100
AcDbEntity
8
0
6
ByLayer
62
256
370
-1
100
AcDbLine
10
70
20
61
11
70
21
66
0
LINE
5
CD
100
AcDbEntity
8
0
6
ByLayer
62
256
370
-1
100
AcDbLine
10
25
20
61
11
25
21
66
0
LINE
5
CE
100
AcDbEntity
8
0
6
ByLayer
62
256
370
-1
100
AcDbLine
10
10
20
66
11
10
21
51
0
LINE
5
CF
100
AcDbEntity
8
0
6
ByLayer
62
256
370
-1
100
AcDbLine
10
90
20
51
11
90
21
25
0
LINE
5
D0
100
AcDbEntity
8
0
6
ByLayer
62
256
370
-1
100
AcDbLine
10
165
20
27.3428886496
11
165
21
51
0
LINE
5
D1
100
AcDbEntity
8
0
6
ByLayer
62
256
370
-1
100
AcDbLine
10
95
20
61
11
95
21
51
0
LINE
5
D2
100
AcDbEntity
8
0
6
ByLayer
62
256
370
-1
100
AcDbLine
10
160
20
51
11
160
21
66
0
LINE
5
D3
100
AcDbEntity
8
0
6
ByLayer
62
256
370
-1
100
AcDbLine
10
145
20
61
11
145
21
66
0
LINE
5
D4
100
AcDbEntity
8
0
6
ByLayer
62
256
370
-1
100
AcDbLine
10
180
20
27
11
180
21
51
0
LINE
5
D5
100
AcDbEntity
8
0
6
ByLayer
62
256
370
-1
100
AcDbLine
10
244
20
51
11
244
21
27
0
LINE
5
D6
100
AcDbEntity
8
0
6
ByLayer
62
256
370
-1
100
AcDbLine
10
234
20
61
11
234
21
66
0
LINE
5
D7
100
AcDbEntity
8
0
6
ByLayer
62
256
370
-1
100
AcDbLine
10
249
20
66
11
249
21
51
0
LINE
5
D8
100
AcDbEntity
8
0
6
ByLayer
62
256
370
-1
100
AcDbLine
10
190
20
61
11
190
21
66
0
LINE
5
D9
100
AcDbEntity
8
0
6
ByLayer
62
256
370
-1
100
AcDbLine
10
175
20
51
11
175
21
66
0
LINE
5
DA
100
AcDbEntity
8
0
6
ByLayer
62
256
370
-1
100
AcDbLine
10
26
20
75
11
26
21
80
0
LINE
5
DB
100
AcDbEntity
8
0
6
ByLayer
62
256
370
-1
100
AcDbLine
10
26
20
80
11
16
21
80
0
LINE
5
DC
100
AcDbEntity
8
0
6
ByLayer
62
256
370
-1
100
AcDbLine
10
11
20
95
11
16
21
95
0
LINE
5
DD
100
AcDbEntity
8
0
6
ByLayer
62
256
370
-1
100
AcDbLine
10
11
20
130
11
16
21
130
0
LINE
5
DE
100
AcDbEntity
8
0
6
ByLayer
62
256
370
-1
100
AcDbLine
10
11
20
130
11
11
21
95
0
LINE
5
DF
100
AcDbEntity
8
0
6
ByLayer
62
256
370
-1
100
AcDbLine
10
26
20
150
11
26
21
145
0
LINE
5
E0
100
AcDbEntity
8
0
6
ByLayer
62
256
370
-1
100
AcDbLine
10
26
20
145
11
16
21
145
0
LINE
5
E1
100
AcDbEntity
8
0
6
ByLayer
62
256
370
-1
100
AcDbLine
10
16
20
145
11
16
21
130
0
LINE
5
E2
100
AcDbEntity
8
0
6
ByLayer
62
256
370
-1
100
AcDbLine
10
16
20
95
11
16
21
80
0
LINE
5
E3
100
AcDbEntity
8
0
6
ByLayer
62
256
370
-1
100
AcDbLine
10
91
20
120
11
96
21
120
0
LINE
5
E4
100
AcDbEntity
8
0
6
ByLayer
62
256
370
-1
100
AcDbLine
10
111
20
127.355095289
11
111.868240888
21
132.279134054
0
LINE
5
E5
100
AcDbEntity
8
0
6
ByLayer
62
256
370
-1
100
AcDbLine
10
145.468271355
20
121.277409071
11
146.336512244
21
126.201447836
0
LINE
5
E6
100
AcDbEntity
8
0
6
ByLayer
62
256
370
-1
100
AcDbLine
10
96
20
135.077133059
11
111.868240888
21
132.279134054
0
LINE
5
E7
100
AcDbEntity
8
0
6
ByLayer
62
256
370
-1
100
AcDbLine
10
96
20
120
11
96
21
135.077133059
0
LINE
5
E8
100
AcDbEntity
8
0
6
ByLayer
62
256
370
-1
100
AcDbLine
10
111
20
127.355095289
11
145.468271355
21
121.277409071
0
LINE
5
E9
100
AcDbEntity
8
0
6
ByLayer
62
256
370
-1
100
AcDbLine
10
146.336512244
20
126.201447836
11
161
21
123.615879313
0
LINE
5
EA
100
AcDbEntity
8
0
6
ByLayer
62
256
370
-1
100
AcDbLine
10
161
20
123.615879313
11
161
21
117.65711135
0
LINE
5
EB
100
AcDbEntity
8
0
6
ByLayer
62
256
370
-1
100
AcDbLine
10
161
20
117.65711135
11
166
21
117.65711135
0
LINE
5
EC
100
AcDbEntity
8
0
6
ByLayer
62
256
370
-1
100
AcDbLine
10
176
20
90
11
181
21
90
0
LINE
5
ED
100
AcDbEntity
8
0
6
ByLayer
62
256
370
-1
100
AcDbLine
10
176
20
125
11
181
21
125
0
LINE
5
EE
100
AcDbEntity
8
0
6
ByLayer
62
256
370
-1
100
AcDbLine
10
176
20
125
11
176
21
90
0
LINE
5
EF
100
AcDbEntity
8
0
6
ByLayer
62
256
370
-1
100
AcDbLine
10
181
20
90
11
181
21
75
0
LINE
5
F0
100
AcDbEntity
8
0
6
ByLayer
62
256
370
-1
100
AcDbLine
10
191
20
141
11
181
21
141
0
LINE
5
F1
100
AcDbEntity
8
0
6
ByLayer
62
256
370
-1
100
AcDbLine
10
181
20
141
11
181
21
125
0
LINE
5
F2
100
AcDbEntity
8
0
6
ByLayer
62
256
370
-1
100
AcDbLine
10
191
20
146
11
191
21
141
0
LINE
5
F3
100
AcDbEntity
8
0
6
ByLayer
62
256
370
-1
100
AcDbLine
10
219
20
123
11
187
21
123
0
LINE
5
F4
100
AcDbEntity
8
0
6
ByLayer
62
256
370
-1
100
AcDbLine
10
187
20
123
11
187
21
85
0
LINE
5
F5
100
AcDbEntity
8
0
6
ByLayer
62
256
370
-1
100
AcDbLine
10
187
20
85
11
219
21
85
0
LINE
5
F6
100
AcDbEntity
8
0
6
ByLayer
62
256
370
-1
100
AcDbLine
10
219
20
85
11
219
21
123
0
LINE
5
F7
100
AcDbEntity
8
0
6
ByLayer
62
256
370
-1
100
AcDbLine
10
57
20
88
11
34
21
88
0
LINE
5
F8
100
AcDbEntity
8
0
6
ByLayer
62
256
370
-1
100
AcDbLine
10
34
20
88
11
34
21
92
0
LINE
5
F9
100
AcDbEntity
8
0
6
ByLayer
62
256
370
-1
100
AcDbLine
10
34
20
92
11
57
21
92
0
LINE
5
FA
100
AcDbEntity
8
0
6
ByLayer
62
256
370
-1
100
AcDbLine
10
57
20
92
11
57
21
88
0
LINE
5
FB
100
AcDbEntity
8
0
6
ByLayer
62
256
370
-1
100
AcDbLine
10
250
20
90
11
250
21
125
0
LINE
5
FC
100
AcDbEntity
8
0
6
ByLayer
62
256
370
-1
100
AcDbLine
10
245
20
125
11
245
21
141
0
LINE
5
FD
100
AcDbEntity
8
0
6
ByLayer
62
256
370
-1
100
AcDbLine
10
85
20
80
11
85
21
130
0
LINE
5
FE
100
AcDbEntity
8
0
6
ByLayer
62
256
370
-1
100
AcDbLine
10
70
20
150
11
70
21
145
0
LINE
5
FF
100
AcDbEntity
8
0
6
ByLayer
62
256
370
-1
100
AcDbLine
10
235
20
146
11
235
21
141
0
CIRCLE
5
100
100
AcDbEntity
8
0
6
ByLayer
62
256
370
-1
100
AcDbCircle
10
236
20
104
40
3.5
0
CIRCLE
5
101
100
AcDbEntity
8
0
6
ByLayer
62
256
370
-1
100
AcDbCircle
10
228
20
104
40
1.25
0
LINE
5
102
100
AcDbEntity
8
0
6
ByLayer
62
256
370
-1
100
AcDbLine
10
26
20
150
11
70
21
150
0
LINE
5
103
100
AcDbEntity
8
0
6
ByLayer
62
256
370
-1
100
AcDbLine
10
70
20
145
11
80
21
145
0
LINE
5
104
100
AcDbEntity
8
0
6
ByLayer
62
256
370
-1
100
AcDbLine
10
80
20
130
11
80
21
145
0
LINE
5
105
100
AcDbEntity
8
0
6
ByLayer
62
256
370
-1
100
AcDbLine
10
80
20
130
11
85
21
130
0
LINE
5
106
100
AcDbEntity
8
0
6
ByLayer
62
256
370
-1
100
AcDbLine
10
181
20
75
11
245
21
75
0
LINE
5
107
100
AcDbEntity
8
0
6
ByLayer
62
256
370
-1
100
AcDbLine
10
191
20
146
11
235
21
146
0
LINE
5
108
100
AcDbEntity
8
0
6
ByLayer
62
256
370
-1
100
AcDbLine
10
235
20
141
11
245
21
141
0
LINE
5
109
100
AcDbEntity
8
0
6
ByLayer
62
256
370
-1
100
AcDbLine
10
245
20
125
11
250
21
125
0
LINE
5
10A
100
AcDbEntity
8
0
6
ByLayer
62
256
370
-1
100
AcDbLine
10
245
20
90
11
250
21
90
0
LINE
5
10B
100
AcDbEntity
8
0
6
ByLayer
62
256
370
-1
100
AcDbLine
10
245
20
90
11
245
21
75
0
CIRCLE
5
10C
100
AcDbEntity
8
0
6
ByLayer
62
256
370
-1
100
AcDbCircle
10
48
20
130
40
10
0
CIRCLE
5
10D
100
AcDbEntity
8
0
6
ByLayer
62
256
370
-1
100
AcDbCircle
10
58
20
130
40
1
0
LINE
5
10E
100
AcDbEntity
8
0
6
ByLayer
62
256
370
-1
100
AcDbLine
10
71
20
75
11
71
21
80
0
LINE
5
10F
100
AcDbEntity
8
0
6
ByLayer
62
256
370
-1
100
AcDbLine
10
26
20
75
11
71
21
75
0
LINE
5
110
100
AcDbEntity
8
0
6
ByLayer
62
256
370
-1
100
AcDbLine
10
71
20
80
11
85
21
80
0
LINE
5
111
100
AcDbEntity
8
0
6
ByLayer
62
256
370
-1
100
AcDbLine
10
225
20
133
11
186
21
133
0
LINE
5
112
100
AcDbEntity
8
0
6
ByLayer
62
256
370
-1
100
AcDbLine
10
186
20
133
11
186
21
137
0
LINE
5
113
100
AcDbEntity
8
0
6
ByLayer
62
256
370
-1
100
AcDbLine
10
225
20
124
11
240
21
124
0
LINE
5
114
100
AcDbEntity
8
0
6
ByLayer
62
256
370
-1
100
AcDbLine
10
225
20
133
11
225
21
124
0
CIRCLE
5
115
100
AcDbEntity
8
0
6
ByLayer
62
256
370
-1
100
AcDbCircle
10
232
20
131
40
4
0
LINE
5
116
100
AcDbEntity
8
0
6
ByLayer
62
256
370
-1
100
AcDbLine
10
66
20
98
11
76
21
98
0
LINE
5
117
100
AcDbEntity
8
0
6
ByLayer
62
256
370
-1
100
AcDbLine
10
76
20
98
11
76
21
86.5
0
LINE
5
118
100
AcDbEntity
8
0
6
ByLayer
62
256
370
-1
100
AcDbLine
10
76
20
86.5
11
66
21
86.5
0
LINE
5
119
100
AcDbEntity
8
0
6
ByLayer
62
256
370
-1
100
AcDbLine
10
66
20
86.5
11
66
21
98
0
LINE
5
11A
100
AcDbEntity
8
0
6
ByLayer
62
256
370
-1
100
AcDbLine
10
111
20
84
11
146
21
84
0
LINE
5
11B
100
AcDbEntity
8
0
6
ByLayer
62
256
370
-1
100
AcDbLine
10
111
20
79
11
96
21
79
0
LINE
5
11C
100
AcDbEntity
8
0
6
ByLayer
62
256
370
-1
100
AcDbLine
10
161
20
79
11
146
21
79
0
LINE
5
11D
100
AcDbEntity
8
0
6
ByLayer
62
256
370
-1
100
AcDbLine
10
91
20
94
11
96
21
94
0
LINE
5
11E
100
AcDbEntity
8
0
6
ByLayer
62
256
370
-1
100
AcDbLine
10
161
20
94
11
166
21
94
0
LINE
5
11F
100
AcDbEntity
8
0
6
ByLayer
62
256
370
-1
100
AcDbLine
10
77
20
87
11
25
21
87
0
LINE
5
120
100
AcDbEntity
8
0
6
ByLayer
62
256
370
-1
100
AcDbLine
10
25
20
87
11
25
21
84
0
LINE
5
121
100
AcDbEntity
8
0
6
ByLayer
62
256
370
-1
100
AcDbLine
10
25
20
84
11
77
21
84
0
LINE
5
122
100
AcDbEntity
8
0
6
ByLayer
62
256
370
-1
100
AcDbLine
10
77
20
84
11
77
21
87
0
LINE
5
123
100
AcDbEntity
8
0
6
ByLayer
62
256
370
-1
100
AcDbLine
10
161
20
94
11
161
21
79
0
LINE
5
124
100
AcDbEntity
8
0
6
ByLayer
62
256
370
-1
100
AcDbLine
10
146
20
84
11
146
21
79
0
LINE
5
125
100
AcDbEntity
8
0
6
ByLayer
62
256
370
-1
100
AcDbLine
10
111
20
84
11
111
21
79
0
LINE
5
126
100
AcDbEntity
8
0
6
ByLayer
62
256
370
-1
100
AcDbLine
10
96
20
79
11
96
21
94
0
LINE
5
127
100
AcDbEntity
8
0
6
ByLayer
62
256
370
-1
100
AcDbLine
10
91
20
94
11
91
21
120
0
LINE
5
128
100
AcDbEntity
8
0
6
ByLayer
62
256
370
-1
100
AcDbLine
10
166
20
117.65711135
11
166
21
94
0
LINE
5
129
100
AcDbEntity
8
0
6
ByLayer
62
256
370
-1
100
AcDbLine
10
186
20
137
11
242
21
137
0
LINE
5
12A
100
AcDbEntity
8
0
6
ByLayer
62
256
370
-1
100
AcDbLine
10
242
20
133
11
242
21
137
0
LINE
5
12B
100
AcDbEntity
8
0
6
ByLayer
62
256
370
-1
100
AcDbLine
10
240
20
124
11
240
21
133
0
LINE
5
12C
100
AcDbEntity
8
0
6
ByLayer
62
256
370
-1
100
AcDbLine
10
240
20
133
11
242
21
133
0
ENDSEC
0
SECTION
2
OBJECTS
0
DICTIONARY
5
C
330
0
100
AcDbDictionary
281
1
3
ACAD_GROUP
350
D
0
DICTIONARY
5
D
330
C
100
AcDbDictionary
281
1
0
ENDSEC
0
EOF
